<svg xmlns="http://www.w3.org/2000/svg" xml:space="preserve" width="512" height="512" viewBox="0 0 311.533 311.533">
  <path fill="#fd651b" d="M273.017 311.533h-206c-8.284 0-15-6.716-15-15V15c0-8.284 6.716-15 15-15h206c8.284 0 15 6.716 15 15v281.533c0 8.284-6.716 15-15 15z"/>
  <path fill="#d35c23" d="M170.017 311.533h-103c-8.284 0-15-6.716-15-15V15c0-8.284 6.716-15 15-15h103v311.533z"/>
  <g fill="#dcdbcd">
    <path d="M211.044 203.269h-82.056v-27.646c0-14.681 11.901-26.582 26.582-26.582h28.891c14.681 0 26.582 11.901 26.582 26.582v27.646z"/>
    <circle cx="170.017" cy="115.746" r="26.044"/>
  </g>
  <g fill="#b7b7ac">
    <path d="M170.017 203.269h-41.028v-27.646c0-14.681 11.901-26.582 26.582-26.582h14.446v54.228zM170.017 141.79c-14.384 0-26.044-11.66-26.044-26.044s11.66-26.044 26.044-26.044v52.088z"/>
  </g>
  <g fill="#58364e">
    <path d="M65.517 82.776h-27c-8.284 0-15-6.716-15-15s6.716-15 15-15h27c8.284 0 15 6.716 15 15s-6.716 15-15 15zM65.517 141.437h-27c-8.284 0-15-6.716-15-15s6.716-15 15-15h27c8.284 0 15 6.716 15 15s-6.716 15-15 15zM65.517 200.097h-27c-8.284 0-15-6.716-15-15s6.716-15 15-15h27c8.284 0 15 6.716 15 15s-6.716 15-15 15zM65.517 258.757h-27c-8.284 0-15-6.716-15-15s6.716-15 15-15h27c8.284 0 15 6.716 15 15s-6.716 15-15 15z"/>
  </g>
</svg>